# xmcd
#
# Track frame offsets: 
#        150
#        12580
#        25972
#        39215
#        52525
#        65427
#        77615
#        90712
#        102587
#        113445
#        127772
#        140485
#        152920
#        166017
#        178050
#        188962
#        201700
#        215270
#        226955
#        236790
#        247845
#        260620
#        270475
#        281795
#        293380
#        304760
#        317262
#        327632
#        339522
#
# Disc length: 4653 seconds
#
# Revision: 0
# Processed by: cddbd v1.5.1PL0 Copyright (c) Steve Scherf et al.
# Submitted via: ExactAudioCopy v0.95a4
#
DISCID=91122b1d
DTITLE=George Morgan - Candy Kisses - Disc 7
DYEAR=1900
DGENRE=Country
TTITLE0=Tender Lovin' Care
TTITLE1=Would You Believe
TTITLE2=Whose Memory Are You
TTITLE3=All Right (I'll Sign The Papers)
TTITLE4=One Dozen Roses (And Our Love)
TTITLE5=You're Not Home Yet
TTITLE6=Back Again
TTITLE7=Just Like A Fool
TTITLE8=We Could
TTITLE9=Almost All The Time
TTITLE10=In Your Eyes
TTITLE11=Your Lonely Nights Are Over
TTITLE12=Just Out Of Reach
TTITLE13=Sin And Silver (& Marion Worth)
TTITLE14=Slipping Around (& Marion Worth)
TTITLE15=I Love You So Much It Hurts (& Marion Worth)
TTITLE16=Country Boy - City Girl (& Marion Worth)
TTITLE17=Just Your Conscience (& Marion Worth)
TTITLE18=Too Busy Saying Goodbye (& Marion Worth)
TTITLE19=Tears And Roses
TTITLE20=Dear John
TTITLE21=Happy Endings (Are Only For The Movies)
TTITLE22=Please Help Me I'm Falling (& Marion Worth)
TTITLE23=Slowly (& Marion Worth)
TTITLE24=How Can We Plan The Future (& Marion Worth)
TTITLE25=(Stolen Love Is) The Beginning Of The End (& Marion Worth)
TTITLE26=The Eyes Of The World (& Marion Worth)
TTITLE27=I'm Thinking Tonight Of My Blue Eyes (& Marion Worth)
TTITLE28=I'll Call You Charlie (You Call Me Joan) (& Marion Worth)
EXTD=
EXTT0=
EXTT1=
EXTT2=
EXTT3=
EXTT4=
EXTT5=
EXTT6=
EXTT7=
EXTT8=
EXTT9=
EXTT10=
EXTT11=
EXTT12=
EXTT13=
EXTT14=
EXTT15=
EXTT16=
EXTT17=
EXTT18=
EXTT19=
EXTT20=
EXTT21=
EXTT22=
EXTT23=
EXTT24=
EXTT25=
EXTT26=
EXTT27=
EXTT28=
PLAYORDER=
